<svg width="32" height="32" viewBox="0 0 32 32" fill="none" xmlns="http://www.w3.org/2000/svg">
<path fill-rule="evenodd" clip-rule="evenodd" d="M26.0853 0H5.91473C2.64811 0 0 2.64811 0 5.91473V26.0853C0 29.3519 2.64811 32 5.91473 32H26.0853C29.3519 32 32 29.3519 32 26.0853V5.91473C32 2.64811 29.3519 0 26.0853 0ZM5.91473 2.03956H26.0853C28.2255 2.03956 29.9604 3.77453 29.9604 5.91473V26.0853C29.9604 28.2255 28.2255 29.9604 26.0853 29.9604H5.91473C3.77453 29.9604 2.03956 28.2255 2.03956 26.0853V5.91473C2.03956 3.77453 3.77453 2.03956 5.91473 2.03956ZM5.76167 25.5721L8.71064 25.547L8.71449 22.2941C8.7156 22.0279 8.77545 21.8437 8.96241 21.656L11.5559 19.0317C11.7417 18.8429 11.9941 18.7362 12.2577 18.7351H20.0228C20.2865 18.7362 20.5389 18.8429 20.7247 19.0317L23.143 21.5454C23.3299 21.7331 23.4355 21.988 23.4366 22.2542L23.4786 25.5721H26.4314V20.3571C26.4317 20.0841 26.322 19.8228 26.1277 19.6331L24.1893 17.79C23.9993 17.601 23.8923 17.3429 23.8923 17.0736C23.8923 16.8043 23.9993 16.5462 24.1893 16.3572L26.1107 14.4167C26.2977 14.229 26.4033 13.9741 26.4044 13.7078L26.4314 5.6058C26.4314 4.80339 25.7873 4.15292 24.9928 4.15292C24.1983 4.15292 23.5272 4.79642 23.5272 5.59882L23.4786 12.0129C23.4775 12.2791 23.3718 12.5341 23.1849 12.7218L20.6351 15.3266C20.4493 15.5154 20.1969 15.6221 19.9332 15.6232H12.1333C11.8697 15.6221 11.6173 15.5154 11.4314 15.3266L8.9425 12.813C8.75554 12.6253 8.7156 12.4281 8.71449 12.1619V5.6058C8.71449 4.80339 8.03259 4.11577 7.23808 4.11577C6.44357 4.11577 5.77164 4.76625 5.77164 5.56866V13.8335C5.77275 14.0997 5.87837 14.3547 6.06533 14.5424L7.9121 16.4075C8.29155 16.7984 8.29155 17.4242 7.9121 17.8151L6.04044 19.7707C5.86136 19.9584 5.76142 20.2089 5.76167 20.4695V25.5721ZM23.4858 26.4913C23.4246 26.9461 23.6221 27.397 23.9983 27.6614C24.4471 28.013 25.0571 28.0805 25.5724 27.8356C26.0877 27.5906 26.4191 27.0756 26.4276 26.5066L23.4858 26.4913ZM6.28516 27.6614C5.90901 27.397 5.71149 26.9461 5.77265 26.4913L8.71449 26.5066C8.70595 27.0756 8.37453 27.5906 7.85927 27.8356C7.344 28.0805 6.73401 28.013 6.28516 27.6614ZM20.2171 12.4458C20.5334 12.4471 20.8372 12.3379 21.0614 12.1424C21.2856 11.9468 21.4116 11.6811 21.4116 11.404V8.1189C21.4116 7.55387 20.8888 7.09583 20.2439 7.09583H20.1903C19.5517 7.10864 19.0434 7.56865 19.0494 8.12828V11.4134C19.0494 11.9914 19.5842 12.4599 20.2439 12.4599L20.2171 12.4458ZM17.2774 8.18735V11.44C17.2746 11.7154 17.1467 11.9784 16.9222 12.17C16.6977 12.3616 16.3954 12.466 16.083 12.4596C15.4382 12.4596 14.9154 11.9989 14.9154 11.4305V8.12598C14.9151 7.83396 15.0555 7.55557 15.3017 7.36017C15.5479 7.16477 15.8767 7.07077 16.2062 7.10157C16.8268 7.16699 17.2901 7.63653 17.2774 8.18735ZM13.1437 11.4229V8.12339C13.1437 7.55588 12.6221 7.09583 11.9786 7.09583H11.9465C11.3031 7.09583 10.7815 7.55588 10.7815 8.12339V11.4229C10.7844 11.9964 11.3123 12.4599 11.9626 12.4599C12.6128 12.4599 13.1408 11.9964 13.1437 11.4229Z" fill="white"/>
</svg>
