<svg width="121" height="16" viewBox="0 0 121 16" fill="none" xmlns="http://www.w3.org/2000/svg">
<path d="M120.354 8.35355C120.549 8.15829 120.549 7.84171 120.354 7.64645L117.172 4.46447C116.976 4.2692 116.66 4.2692 116.464 4.46447C116.269 4.65973 116.269 4.97631 116.464 5.17157L119.293 8L116.464 10.8284C116.269 11.0237 116.269 11.3403 116.464 11.5355C116.66 11.7308 116.976 11.7308 117.172 11.5355L120.354 8.35355ZM0 8.5H2V7.5H0V8.5ZM6 8.5H10V7.5H6V8.5ZM14 8.5H18V7.5H14V8.5ZM22 8.5H26V7.5H22V8.5ZM30 8.5H34V7.5H30V8.5ZM38 8.5H42V7.5H38V8.5ZM46 8.5H50V7.5H46V8.5ZM54 8.5H58V7.5H54V8.5ZM62 8.5H66V7.5H62V8.5ZM70 8.5H74V7.5H70V8.5ZM78 8.5H82V7.5H78V8.5ZM86 8.5H90V7.5H86V8.5ZM94 8.5H98V7.5H94V8.5ZM102 8.5H106V7.5H102V8.5ZM110 8.5H114V7.5H110V8.5ZM118 8.5H120V7.5H118V8.5ZM120.707 8.70711C121.098 8.31658 121.098 7.68342 120.707 7.29289L114.343 0.928932C113.953 0.538408 113.319 0.538408 112.929 0.928932C112.538 1.31946 112.538 1.95262 112.929 2.34315L118.586 8L112.929 13.6569C112.538 14.0474 112.538 14.6805 112.929 15.0711C113.319 15.4616 113.953 15.4616 114.343 15.0711L120.707 8.70711ZM0 9H2V7H0V9ZM6 9H10V7H6V9ZM14 9H18V7H14V9ZM22 9H26V7H22V9ZM30 9H34V7H30V9ZM38 9H42V7H38V9ZM46 9H50V7H46V9ZM54 9H58V7H54V9ZM62 9H66V7H62V9ZM70 9H74V7H70V9ZM78 9H82V7H78V9ZM86 9H90V7H86V9ZM94 9H98V7H94V9ZM102 9H106V7H102V9ZM110 9H114V7H110V9ZM118 9H120V7H118V9Z" fill="#BECDDE"/>
</svg>
