<svg width="46" height="46" viewBox="0 0 46 46" fill="none" xmlns="http://www.w3.org/2000/svg">
<g clip-path="url(#clip0)">
<path d="M43.7358 4.11511C44.4207 3.24851 44.2734 1.99078 43.4068 1.30588C42.5402 0.620989 41.2824 0.768291 40.5975 1.63489L43.7358 4.11511ZM16.6875 44.0833C16.6875 45.1879 17.5829 46.0833 18.6875 46.0833C19.7921 46.0833 20.6875 45.1879 20.6875 44.0833H16.6875ZM18.9029 32.3107L20.4721 33.5508L18.9029 32.3107ZM40.5975 1.63489L17.3338 31.0706L20.4721 33.5508L43.7358 4.11511L40.5975 1.63489ZM16.6875 32.9308V44.0833H20.6875V32.9308H16.6875ZM17.3338 31.0706C16.9152 31.6003 16.6875 32.2557 16.6875 32.9308H20.6875C20.6875 33.1558 20.6116 33.3743 20.4721 33.5508L17.3338 31.0706Z" fill="#67D5FA"/>
<path d="M13.8958 31.1458L2.65482 25.3172C1.93828 24.9456 1.93443 23.922 2.64816 23.5451L41.9477 2.79146C42.6548 2.41804 43.4924 2.9845 43.4092 3.77982L39.442 41.6889C39.3693 42.3836 38.6249 42.7916 38.0002 42.4793L23.9583 35.4583" stroke="#2711DF" stroke-width="4" stroke-linecap="round"/>
</g>
<defs>
<clipPath id="clip0">
<rect width="46" height="46" fill="white"/>
</clipPath>
</defs>
</svg>
