<svg width="46" height="46" viewBox="0 0 46 46" fill="none" xmlns="http://www.w3.org/2000/svg">
<g clip-path="url(#clip0)">
<path d="M40.0532 13.6736C39.2393 13.6736 38.5732 12.9984 38.5732 12.1633V9.64877C38.5732 6.88209 36.5858 4.6228 34.1363 4.6228H7.5204C5.07383 4.6228 3.08338 6.87758 3.08338 9.64877V35.792C3.08338 38.5634 5.07535 40.818 7.5204 40.818H13.4343C14.2484 40.818 14.9144 41.4931 14.9144 42.3283C14.9144 43.1588 14.2514 43.8354 13.4343 43.8354H7.5204C3.44729 43.8354 0.126343 40.2291 0.126343 35.7966V9.65178C0.126343 5.21944 3.44275 1.61299 7.5204 1.61299H34.1348C38.2123 1.61299 41.5287 5.21935 41.5287 9.65178V12.1663C41.5287 12.9984 40.8673 13.6736 40.0532 13.6736ZM27.4944 30.6529C25.2562 29.0067 23.7838 26.3443 23.7838 23.3237C23.7838 18.3371 27.7662 14.2761 32.6533 14.2761C37.5403 14.2761 41.5228 18.3371 41.5228 23.3237C41.5228 26.3457 40.0503 29.0082 37.8121 30.6529C42.5301 33.0511 45.9553 38.367 45.9553 42.9263C45.9553 43.7614 45.2923 44.4335 44.4752 44.4335C43.6612 44.4335 42.9997 43.7584 42.9997 42.9263C42.9997 38.7581 38.3635 32.3716 32.6487 32.3716C26.9341 32.3716 22.2977 38.7567 22.2977 42.9263C22.2977 43.7614 21.6348 44.4335 20.8177 44.4335C20.0038 44.4335 19.3423 43.7584 19.3423 42.9263C19.3512 38.367 22.7764 33.051 27.4944 30.6529ZM38.5717 23.3237C38.5717 19.9998 35.9229 17.2935 32.6578 17.2935C29.3927 17.2935 26.7453 19.9984 26.7453 23.3237C26.7453 26.6522 29.3943 29.3541 32.6593 29.3541C35.9229 29.3541 38.5717 26.6523 38.5717 23.3237Z" fill="#2711DF" stroke="#2711DF"/>
<line x1="7.75" y1="14.2917" x2="20.0417" y2="14.2917" stroke="#67D5FA" stroke-width="4" stroke-linecap="round" stroke-linejoin="bevel"/>
<line x1="7.75" y1="24.8333" x2="15.25" y2="24.8333" stroke="#67D5FA" stroke-width="4" stroke-linecap="round" stroke-linejoin="bevel"/>
</g>
<defs>
<clipPath id="clip0">
<rect width="46" height="46" fill="white"/>
</clipPath>
</defs>
</svg>
