<svg width="52" height="52" viewBox="0 0 52 52" fill="none" xmlns="http://www.w3.org/2000/svg">
<path d="M52 0H0V52H52V0Z" fill="white" fill-opacity="0.01"/>
<path d="M8.66641 39L8.67141 30.3795C8.67238 29.7815 9.1573 29.2968 9.75537 29.2962C13.3671 29.2962 16.979 29.2962 20.5908 29.2962C21.5891 29.2962 21.5838 28.4106 21.5838 26.3025C21.5838 24.1943 16.2737 22.4186 16.2737 15.0072C16.2737 7.59581 21.7747 5.41667 26.3465 5.41667C30.9182 5.41667 35.8978 7.59581 35.8978 15.0072C35.8978 22.4186 30.6155 23.597 30.6155 26.3025C30.6155 29.0079 30.6155 29.2962 31.4612 29.2962C35.0574 29.2962 38.6538 29.2962 42.2501 29.2962C42.8483 29.2962 43.3334 29.7813 43.3334 30.3795V39H8.66641Z" stroke="#2711DF" stroke-width="4" stroke-linejoin="round"/>
<path d="M8.66667 45.5H43.3333" stroke="#67D5FA" stroke-width="4" stroke-linecap="round" stroke-linejoin="round"/>
</svg>
