<?xml version="1.0" encoding="UTF-8"?>
<svg width="36px" height="36px" viewBox="0 0 36 36" version="1.1" xmlns="http://www.w3.org/2000/svg" xmlns:xlink="http://www.w3.org/1999/xlink">
    <title>编组</title>
    <g id="应用" stroke="none" stroke-width="1" fill="none" fill-rule="evenodd">
        <g id="开发者中心/应用设置" transform="translate(-1681.000000, -12.000000)" fill-rule="nonzero">
            <g id="编组" transform="translate(1681.000000, 12.000000)">
                <path d="M18,0 C8.01818181,0 0,8.01818181 0,18 C0,27.9818182 8.01818181,36 18,36 C27.9818182,36 36,27.9818182 36,18 C36,8.01818181 27.9818182,0 18,0 Z" id="形状" fill="#F4F0FF"></path>
                <path d="M18,19.6363637 C23.0727273,19.6363637 27.6545455,22.2545455 30.2727273,26.1818182 C27.6545455,30.1090909 23.0727273,32.7272727 18,32.7272727 C12.9272727,32.7272727 8.34545454,30.1090909 5.72727273,26.1818182 C8.34545454,22.2545455 12.9272727,19.6363637 18,19.6363637 Z M18,3.27272727 C21.6,3.27272727 24.5454545,6.21818181 24.5454545,9.81818181 C24.5454545,13.4181818 21.6,16.3636363 18,16.3636363 C14.4,16.3636363 11.4545455,13.4181818 11.4545455,9.81818181 C11.4545455,6.21818181 14.4,3.27272727 18,3.27272727 Z" id="形状结合" fill="#D0C2FF"></path>
            </g>
        </g>
    </g>
</svg>